<svg width="16" height="16" viewBox="0 0 16 16" fill="none" xmlns="http://www.w3.org/2000/svg">
<path d="M7.125 11.875H8.70833V7.125H7.125V11.875ZM8.48113 5.31446C8.6326 5.16246 8.70833 4.97431 8.70833 4.75C8.70833 4.52569 8.63233 4.33781 8.48033 4.18633C8.32833 4.03486 8.14044 3.95886 7.91667 3.95833C7.69289 3.95781 7.505 4.03381 7.353 4.18633C7.201 4.33886 7.125 4.52675 7.125 4.75C7.125 4.97325 7.201 5.1614 7.353 5.31446C7.505 5.46751 7.69289 5.54325 7.91667 5.54167C8.14044 5.54008 8.3286 5.46408 8.48113 5.31367M7.91667 15.8333C6.82153 15.8333 5.79236 15.6254 4.82917 15.2095C3.86597 14.7936 3.02813 14.2297 2.31563 13.5177C1.60313 12.8057 1.0392 11.9679 0.623834 11.0042C0.208473 10.0404 0.00052878 9.01128 1.00211e-06 7.91667C-0.000526776 6.82206 0.207418 5.79289 0.623834 4.82917C1.04025 3.86544 1.60418 3.0276 2.31563 2.31563C3.02707 1.60365 3.86492 1.03972 4.82917 0.623833C5.79342 0.207945 6.82258 0 7.91667 0C9.01075 0 10.0399 0.207945 11.0042 0.623833C11.9684 1.03972 12.8063 1.60365 13.5177 2.31563C14.2292 3.0276 14.7933 3.86544 15.2103 4.82917C15.6272 5.79289 15.8349 6.82206 15.8333 7.91667C15.8318 9.01128 15.6238 10.0404 15.2095 11.0042C14.7952 11.9679 14.2313 12.8057 13.5177 13.5177C12.8042 14.2297 11.9663 14.7939 11.0042 15.2103C10.042 15.6267 9.01286 15.8344 7.91667 15.8333ZM7.91667 14.25C9.68472 14.25 11.1823 13.6365 12.4094 12.4094C13.6365 11.1823 14.25 9.68472 14.25 7.91667C14.25 6.14861 13.6365 4.65104 12.4094 3.42396C11.1823 2.19687 9.68472 1.58333 7.91667 1.58333C6.14861 1.58333 4.65104 2.19687 3.42396 3.42396C2.19688 4.65104 1.58333 6.14861 1.58333 7.91667C1.58333 9.68472 2.19688 11.1823 3.42396 12.4094C4.65104 13.6365 6.14861 14.25 7.91667 14.25Z" fill="white"/>
</svg>
