<svg width="12" height="12" viewBox="0 0 12 12" fill="none" xmlns="http://www.w3.org/2000/svg">
<path d="M11.6486 2.89162L10.0714 0.761032C9.73085 0.284512 9.17727 0 8.59168 0H4.96364C4.96364 0 4.95964 0 4.95764 0H3.41041C2.82432 0 2.27124 0.284512 1.93369 0.757032L0.333455 2.89212C-0.135614 3.55515 -0.10561 4.45869 0.396965 5.07671L4.98564 11.51C5.23268 11.8215 5.60274 12 6.0003 12H6.0008C6.39835 12 6.76841 11.821 7.02295 11.5L11.5931 5.11421C12.1142 4.47269 12.1372 3.55915 11.6481 2.89162H11.6486ZM9.66734 1.05554L11.2461 3.18863C11.3176 3.28614 11.3736 3.39114 11.4151 3.50015H8.42966L7.397 0.500021H8.59168C9.01674 0.500021 9.4178 0.706529 9.66734 1.05554ZM4.10101 3.50015L5.13367 0.500021H6.86842L7.90108 3.50015H4.10101ZM7.92108 4.00017L6.0008 10.827L4.08051 4.00017H7.92108ZM2.33675 1.05204C2.58379 0.706529 2.98485 0.500021 3.40991 0.500021H4.60459L3.57194 3.50015H0.575491C0.614497 3.39014 0.668505 3.28464 0.737515 3.18663L2.33675 1.05204ZM5.3852 11.2095L0.794524 4.7742C0.611496 4.54919 0.513482 4.27618 0.50098 4.00017H3.56043L5.64424 11.4085C5.54373 11.363 5.45371 11.2965 5.3847 11.21L5.3852 11.2095ZM6.62439 11.199C6.55188 11.29 6.45986 11.3585 6.35785 11.4055L8.44116 3.99917H11.4996C11.4916 4.28568 11.3906 4.57119 11.1966 4.8102L6.62489 11.1985L6.62439 11.199Z" fill="#CF3763"/>
</svg>
