<svg width="17" height="18" viewBox="0 0 17 18" fill="none" xmlns="http://www.w3.org/2000/svg">
<path d="M10.4 0L12.9742 3.60724L14.6718 3.02843L16.2212 7.56095H17V17.2752H0V7.56095H0.412857V7.55286L0.937429 7.55771L10.4 0ZM6.39281 7.56095H14.5107L13.6712 5.10567L12.4391 5.49991L6.39281 7.56095ZM5.13157 6.27948L11.3738 4.15286L10.0753 2.33143L5.13157 6.27948ZM3.2381 9.18H1.61905V10.799C2.04845 10.799 2.46026 10.6285 2.76389 10.3248C3.06752 10.0212 3.2381 9.6094 3.2381 9.18ZM11.3333 12.4181C11.3333 12.046 11.26 11.6776 11.1177 11.3338C10.9753 10.9901 10.7666 10.6777 10.5035 10.4146C10.2404 10.1515 9.92803 9.94283 9.58427 9.80044C9.24051 9.65805 8.87208 9.58476 8.5 9.58476C8.12792 9.58476 7.75949 9.65805 7.41573 9.80044C7.07197 9.94283 6.75963 10.1515 6.49653 10.4146C6.23343 10.6777 6.02473 10.9901 5.88234 11.3338C5.73995 11.6776 5.66667 12.046 5.66667 12.4181C5.66667 13.1695 5.96518 13.8902 6.49653 14.4216C7.02788 14.9529 7.74855 15.2514 8.5 15.2514C9.25145 15.2514 9.97212 14.9529 10.5035 14.4216C11.0348 13.8902 11.3333 13.1695 11.3333 12.4181ZM15.381 15.6562V14.0371C14.9516 14.0371 14.5397 14.2077 14.2361 14.5114C13.9325 14.815 13.7619 15.2268 13.7619 15.6562H15.381ZM13.7619 9.18C13.7619 9.6094 13.9325 10.0212 14.2361 10.3248C14.5397 10.6285 14.9516 10.799 15.381 10.799V9.18H13.7619ZM1.61905 15.6562H3.2381C3.2381 15.2268 3.06752 14.815 2.76389 14.5114C2.46026 14.2077 2.04845 14.0371 1.61905 14.0371V15.6562Z" fill="#CDFF8E"/>
</svg>
