<svg width="14" height="14" viewBox="0 0 14 14" fill="none" xmlns="http://www.w3.org/2000/svg">
<path fill-rule="evenodd" clip-rule="evenodd" d="M6.79111 0C10.5418 0 13.5822 3.04038 13.5822 6.79111C13.5822 10.5418 10.5418 13.5822 6.79111 13.5822C3.04038 13.5822 0 10.5418 0 6.79111C0 3.04038 3.04038 0 6.79111 0ZM1.49744 8.02031C1.7351 9.04059 2.26232 9.97054 3.01574 10.6984C3.76916 11.4263 4.71673 11.9212 5.7446 12.1235C5.61353 10.3408 5.02746 9.27123 4.28723 8.67972C3.57824 8.11267 2.61662 7.89331 1.49744 8.01963V8.02031ZM9.295 8.67904C8.55477 9.27191 7.96869 10.3408 7.83763 12.1235C8.86558 11.9211 9.81322 11.4262 10.5666 10.6981C11.3201 9.97013 11.8472 9.04003 12.0848 8.01963C10.9656 7.89331 10.004 8.11267 9.295 8.67972V8.67904ZM6.79111 1.35822C5.52526 1.358 4.29907 1.7998 3.32426 2.60735C2.34945 3.41489 1.68723 4.53748 1.45194 5.78128L1.42274 5.9497L2.92357 5.64953C3.31882 5.57075 3.69437 5.36226 4.11406 5.07907L4.43799 4.85361C4.97924 4.46923 5.78128 4.07467 6.79111 4.07467C7.73372 4.07467 8.495 4.4183 9.03218 4.77687L9.46817 5.07907C9.83489 5.32695 10.169 5.5171 10.5113 5.61421L10.6587 5.64953L12.1595 5.9497C11.9589 4.67008 11.3077 3.50424 10.3234 2.66236C9.33907 1.82048 8.08636 1.35798 6.79111 1.35822Z" fill="black"/>
</svg>
